<?xml version="1.0" encoding="UTF-8"?>
<svg id="Layer_2" xmlns="http://www.w3.org/2000/svg" viewBox="0 0 428.08 146.27">
  <defs>
    <style>
      .cls-1 {
        fill: none;
      }
    </style>
  </defs>
  <g id="OBJECTS">
    <g id="rocket">
      <path class="cls-1" d="M210.87,42.67c0,1.75,1.42,3.17,3.17,3.17s3.17-1.42,3.17-3.17-1.42-3.17-3.17-3.17-3.17,1.42-3.17,3.17Z"/>
      <path class="cls-1" d="M214.04,49.67c-1.25,0-2.26,1.01-2.26,2.26s1.01,2.26,2.26,2.26,2.26-1.01,2.26-2.26-1.01-2.26-2.26-2.26Z"/>
      <path class="cls-1" d="M0,0v116.4c1.83-.46,3.74-.71,5.71-.71,9.67,0,17.97,5.89,21.51,14.27,2.74-1.44,5.85-2.27,9.16-2.27,6.55,0,12.33,3.21,15.91,8.14,2.5-1.36,5.38-2.14,8.43-2.14,7.88,0,14.55,5.16,16.82,12.28,3.46-2.08,7.51-3.28,11.84-3.28s8.76,1.32,12.32,3.58c1.01-2.55,3.49-4.36,6.4-4.36,1.88,0,3.59.76,4.83,1.98,2.7-1.81,5.95-2.87,9.45-2.87,3.98,0,7.63,1.38,10.52,3.67,1.59-5.58,6.72-9.67,12.81-9.67,3.04,0,5.84,1.03,8.08,2.75,1.27-4.47,5.38-7.75,10.25-7.75,3.21,0,6.09,1.43,8.05,3.68.41-3.85,3.67-6.84,7.62-6.84,1.76,0,3.38.6,4.68,1.6,0-.04-.01-.07-.01-.1,0-1.59.8-2.99,2.01-3.83,0-.02,0-.04,0-.06,0-2.89,2.34-5.23,5.23-5.23.96,0,1.85.28,2.63.73.28-2.78,2.62-4.94,5.47-4.94.5,0,.98.07,1.44.2-.02-.13-.04-.27-.04-.4,0-1.65,1.23-2.99,2.82-3.21-.08-.19-.13-.39-.13-.61,0-.83.67-1.5,1.5-1.5.09,0,.18.01.27.03.11-1.05.96-1.88,2.02-1.95-.33-.39-.54-.9-.54-1.45,0-.69.32-1.31.82-1.72,0-.01,0-.02,0-.03,0-.47.22-.88.55-1.16-.86-.57-1.43-1.55-1.43-2.66,0-1.58,1.15-2.88,2.65-3.13-.32-.36-.53-.84-.53-1.37,0-.77.42-1.43,1.04-1.78-1.25-.66-2.11-1.96-2.11-3.47,0-1.88,1.32-3.44,3.08-3.84-.35-.32-.58-.78-.58-1.29,0-.91.7-1.65,1.59-1.73-.1-.24-.15-.49-.15-.77,0-1.14.92-2.06,2.06-2.06s2.06.92,2.06,2.06c0,.27-.06.53-.15.77.89.08,1.59.82,1.59,1.73,0,.51-.22.97-.58,1.29,1.76.39,3.08,1.96,3.08,3.84,0,1.51-.86,2.81-2.11,3.47.62.36,1.04,1.02,1.04,1.78,0,.53-.2,1-.53,1.37,1.5.26,2.65,1.56,2.65,3.13,0,1.11-.57,2.09-1.43,2.66.34.28.55.69.55,1.16,0,.01,0,.02,0,.03.49.41.82,1.03.82,1.72,0,.56-.21,1.06-.54,1.45,1.07.07,1.91.9,2.02,1.95.09-.02.18-.03.27-.03.83,0,1.5.67,1.5,1.5,0,.22-.05.42-.13.61,1.59.21,2.82,1.56,2.82,3.21,0,.14-.02.27-.04.4.46-.12.94-.2,1.44-.2,2.85,0,5.19,2.17,5.47,4.94.77-.45,1.66-.73,2.63-.73,2.89,0,5.23,2.34,5.23,5.23,0,.02,0,.04,0,.06,1.21.84,2.01,2.24,2.01,3.83,0,.04,0,.07-.01.1,1.3-1,2.91-1.6,4.68-1.6,3.96,0,7.21,3,7.62,6.84,1.96-2.25,4.83-3.68,8.05-3.68,4.88,0,8.98,3.28,10.25,7.75,2.24-1.71,5.04-2.75,8.08-2.75,6.09,0,11.22,4.09,12.81,9.67,2.9-2.29,6.55-3.67,10.52-3.67,3.5,0,6.74,1.06,9.45,2.87,1.24-1.22,2.95-1.98,4.83-1.98,2.91,0,5.4,1.81,6.4,4.36,3.56-2.26,7.79-3.58,12.32-3.58s8.38,1.2,11.84,3.28c2.28-7.12,8.95-12.28,16.82-12.28,3.05,0,5.92.77,8.43,2.14,3.57-4.92,9.36-8.14,15.91-8.14,3.31,0,6.42.83,9.16,2.27,3.54-8.39,11.83-14.27,21.51-14.27,1.97,0,3.88.25,5.71.71V0H0ZM193.66,77.32s-3.13-16.66,10.6-20.94c.1,3.37.33,7.61.67,10.9-3.97.86-9.62,3.28-11.27,10.04ZM219.28,79.39c-.04.24-.25.41-.49.41h-9.49c-.24,0-.45-.18-.49-.41l-.29-1.66c-.02-.15.02-.29.11-.41.1-.11.23-.18.38-.18h10.06c.15,0,.29.07.38.18.09.11.13.26.11.41l-.29,1.66ZM219.85,75.14c-.04.24-.25.41-.49.41h-10.64c-.24,0-.45-.18-.49-.41l-.29-1.66c-.02-.15.02-.29.11-.41.09-.11.23-.18.38-.18h11.21c.15,0,.29.06.38.18.09.11.13.26.11.41l-.29,1.66ZM221.3,70.86c-.09.39-.44.66-.84.66h-12.83c-.4,0-.75-.28-.84-.66-.83-3.53-1.28-13.75-1.28-18.01,0-11.9,7.42-30.45,7.74-31.24.13-.33.45-.54.8-.54s.67.21.8.54c.32.78,7.74,19.34,7.74,31.24,0,4.26-.45,14.48-1.28,18.01ZM234.41,77.32c-1.65-6.76-7.3-9.17-11.27-10.04.35-3.29.57-7.54.67-10.9,13.73,4.28,10.6,20.94,10.6,20.94Z"/>
    </g>
  </g>
</svg>